<svg xmlns="http://www.w3.org/2000/svg" width="30" height="30" viewBox="0 0 30 30">
    <g fill="#FFA80C" fill-rule="evenodd">
        <path d="M25.556 4.388A14.868 14.868 0 0 0 14.968 0 14.868 14.868 0 0 0 4.379 4.388c-5.47 5.472-5.85 14.23-.943 20.138-.481.968-1.254 2.096-2.4 2.66a1.394 1.394 0 0 0-.766 1.468 1.404 1.404 0 0 0 1.171 1.178c.285.045.69.089 1.184.089 1.324 0 3.275-.31 5.27-1.748a14.974 14.974 0 0 0 17.668-2.61 14.868 14.868 0 0 0 4.387-10.587c0-4.002-1.564-7.757-4.394-10.588zm-1.21 19.967a13.263 13.263 0 0 1-16.097 2.064.851.851 0 0 0-1.039.133.283.283 0 0 0-.07.05c-1.715 1.33-3.4 1.609-4.515 1.609H2.62c1.286-.937 2.096-2.33 2.571-3.413a.873.873 0 0 0 .044-.551.887.887 0 0 0-.209-.481C.39 18.529.631 10.55 5.583 5.598c5.174-5.174 13.59-5.174 18.756 0 5.18 5.173 5.18 13.583.007 18.757z"/>
        <path stroke="#FFA80C" d="M16.019 14.976a1.051 1.051 0 1 1-2.103 0 1.051 1.051 0 0 1 2.103 0zM21.44 14.976a1.051 1.051 0 1 1-2.103 0 1.051 1.051 0 0 1 2.102 0zM10.598 14.976a1.051 1.051 0 1 1-2.102 0 1.051 1.051 0 0 1 2.102 0z"/>
    </g>
</svg>
