<svg xmlns="http://www.w3.org/2000/svg" width="32" height="32" viewBox="0 0 32 32">
    <g fill="none" fill-rule="evenodd">
        <path fill="#FFFFFE" d="M3.217 16.98C.327 12.285 1.79 6.133 6.487 3.24c4.696-2.892 10.848-1.428 13.74 3.268a9.986 9.986 0 0 1 1.481 5.38 10.165 10.165 0 0 1-10.258 9.837H2.233l.97-1.648c.578-.95.583-2.14.014-3.096"/>
        <path d="M28.784 25.541c2.89-4.698 1.424-10.85-3.274-13.739a9.98 9.98 0 0 0-3.902-1.391c.07.49.102.982.1 1.477a10.165 10.165 0 0 1-10.258 9.837h-1.042a10.215 10.215 0 0 0 10.144 8.56h9.216l-.97-1.648a3.004 3.004 0 0 1-.014-3.096" opacity=".201"/>
        <path fill="#FFA80C" stroke="#FFA80C" stroke-width=".2" d="M20.552 29.572a9.524 9.524 0 0 1-9.274-7.134h.172c5.913.05 10.785-4.632 10.97-10.543v-.62a9.273 9.273 0 0 1 5.78 13.888 3.702 3.702 0 0 0 0 3.83l.341.579h-7.989zm-17.07-8.56l.342-.578a3.702 3.702 0 0 0 0-3.831 9.274 9.274 0 1 1 17.17-4.73 9.452 9.452 0 0 1-9.544 9.138H3.48zm25.93 7.261a2.276 2.276 0 0 1 0-2.354c3.096-5.033 1.526-11.624-3.508-14.72a10.695 10.695 0 0 0-3.626-1.401 10.7 10.7 0 0 0-3.196-5.857 10.599 10.599 0 0 0-8.217-2.903C4.973 1.499.572 6.648 1.033 12.54a10.695 10.695 0 0 0 1.579 4.812c.437.724.437 1.63 0 2.354L1.62 21.36a.713.713 0 0 0 .614 1.077h7.59a10.95 10.95 0 0 0 10.7 8.56h9.245a.714.714 0 0 0 .614-1.077l-.971-1.648z"/>
        <path fill="#FFA80C" d="M10.123 11.26l-.036.036a.101.101 0 0 0-.029.085l.207 1.455a.822.822 0 0 0 .814.707.853.853 0 0 0 .839-.703l.024-.132c1.455-.257 2.632-.97 2.632-2.718 0-1.812-1.334-2.853-3.303-2.853-.68-.017-1.529.295-2.544.934A.81.81 0 0 0 8.56 9.3c.346.38.91.467 1.354.209.518-.301.958-.455 1.322-.462.813 0 1.277.357 1.277.97 0 .476-.797.89-2.39 1.242zM11.007 16.807h.029a1.091 1.091 0 1 0 0-2.183h-.029a1.091 1.091 0 0 0 0 2.183z"/>
    </g>
</svg>
