<svg xmlns="http://www.w3.org/2000/svg" width="32" height="31" viewBox="0 0 32 31">
    <g fill="none" fill-rule="evenodd">
        <path d="M20.285 1.712H3.143c-.79 0-1.429.633-1.429 1.414v.226A1.42 1.42 0 0 1 3.14 1.934c.236 0 .467.057.675.167l10.714 4.864c.467.246.759.728.757 1.251v16.828h5a1.42 1.42 0 0 0 1.429-1.414V3.126a1.42 1.42 0 0 0-1.429-1.414" opacity=".2"/>
        <path fill="#FFA80C" stroke="#FFA80C" stroke-width=".2" d="M21 23.63a.71.71 0 0 1-.715.707H16V8.217a2.12 2.12 0 0 0-1.179-1.895L6.214 2.419h14.071c.395 0 .715.317.715.707V23.63zm-6.429 4.242a.711.711 0 0 1-.986.65L2.871 24.747a.707.707 0 0 1-.442-.65V3.351c0-.39.32-.707.714-.707a.803.803 0 0 1 .378.1L14.2 7.594a.706.706 0 0 1 .378.621l-.007 19.656zm16.221-15.35l-3.571-3.535a.72.72 0 0 0-1.007.077.701.701 0 0 0 0 .92l2.35 2.333h-6.136V3.126c0-1.172-.96-2.121-2.143-2.121H3.143C1.959 1.005 1 1.955 1 3.125v20.971c0 .871.539 1.653 1.357 1.973l10.714 3.783a2.15 2.15 0 0 0 2.78-1.196c.099-.25.15-.515.149-.784V25.75h4.285c1.184 0 2.143-.95 2.143-2.121V13.73h6.136l-2.35 2.326c-.3.254-.335.701-.078.997a.72.72 0 0 0 1.085 0l3.571-3.535a.702.702 0 0 0 0-.997z"/>
        <path fill="#FFA80C" stroke="#FFA80C" stroke-width=".2" d="M11.943 17.302L9.8 16.595a.716.716 0 0 0-.904.449.706.706 0 0 0 .454.894l2.143.707a.716.716 0 0 0 .903-.449.705.705 0 0 0-.453-.894"/>
    </g>
</svg>
