<svg xmlns="http://www.w3.org/2000/svg" width="32" height="32" viewBox="0 0 32 32">
    <g fill="none" fill-rule="evenodd">
        <path stroke="#979797" stroke-width=".2" d="M23.857 28v-2.757a7.143 7.143 0 0 0-7.143-7.143h-1.428a7.143 7.143 0 0 0-7.143 7.143v2.593C11 29.657 16.67 31.964 23.857 28" opacity=".2"/>
        <path fill="#FFFFFE" d="M16 8.257c3.116 0 5.643 2.808 5.643 6.272 0 3.463-2.527 6.271-5.643 6.271-3.116 0-5.643-2.808-5.643-6.271 0-3.464 2.527-6.272 5.643-6.272"/>
        <path fill="#FFA80C" stroke="#FFA80C" stroke-width=".2" d="M24.571 26.464v-1.221a7.858 7.858 0 0 0-3.5-6.522 7.39 7.39 0 0 0 1.286-4.192c0-3.85-2.857-6.986-6.357-6.986s-6.357 3.136-6.357 6.986a7.39 7.39 0 0 0 1.286 4.192 7.858 7.858 0 0 0-3.5 6.522v1.221C1.617 21.731.744 13.182 5.478 7.371 10.21 1.559 18.76.686 24.57 5.42c5.812 4.734 6.685 13.282 1.951 19.094a13.54 13.54 0 0 1-1.95 1.95zM16 20.086c-2.714 0-4.929-2.493-4.929-5.557 0-3.065 2.215-5.558 4.929-5.558 2.714 0 4.929 2.493 4.929 5.558 0 3.064-2.215 5.557-4.929 5.557zM8.857 27.47v-2.228a6.429 6.429 0 0 1 3.007-5.422 5.9 5.9 0 0 0 8.272 0 6.429 6.429 0 0 1 3.007 5.422v2.228a13.43 13.43 0 0 1-14.286 0zM16 1C7.716 1 1 7.716 1 16c0 8.284 6.716 15 15 15 8.284 0 15-6.716 15-15v-.043C30.976 7.69 24.268 1 16 1z"/>
    </g>
</svg>
