<svg xmlns="http://www.w3.org/2000/svg" width="32" height="18" viewBox="0 0 32 18">
    <g fill="none" fill-rule="evenodd">
        <path stroke="#FFA80C" d="M3.837 7.393s.811 1.642.888 1.704c.077.063 2.325.633 2.57.608.134-.014.502-.244.803-.446a.282.282 0 0 0-.06-.5L3.9 7.172l-.032.11-.032.111z"/>
        <path fill="#FFA80C" stroke="#FFA80C" d="M3.449 12.959c.04-.786.848-2.39 1.573-2.208 2.07.52 4.259.866 6.278 1.415.149.04 1.163.068 2.213.085 1.05.018 2.136.026 2.424.028.575-.005 4.341-.032 4.637-.113 2.019-.549 4.209-.895 6.278-1.415.801-.201 1.686 1.729 1.703 2.346.007.272-.215.98-.339 1.282-.04.101-.219.17-.33.178-.777.064-3.796.269-3.977.214-1.154-.351-3.854-1.388-3.828-1.617.007-.062 3.838 1.486 3.893 1.492.057.007 3.932-.165 4.038-.256.098-.084.391-1.081.394-1.277.004-.4-.865-1.8-1.11-2.019-.066-.06-.205-.195-.437-.15-1.607.319-5.524 1.25-6.275 1.396-.153.03-1.172.05-2.223.063-1.052.011-2.136.017-2.424.018-.575-.002-4.34-.021-4.647-.081-.752-.146-4.668-1.077-6.275-1.396-.232-.045-.37.09-.437.15-.226.203-.935 1.432-.935 1.86 0 .169.156.865.235 1.22.028.124.088.215.219.224.835.056 3.779.254 3.828.248.056-.006 3.894-1.549 3.9-1.495.01.089-2.678 1.268-3.835 1.62-.18.054-3.16-.146-3.962-.212a.29.29 0 0 1-.255-.198c-.111-.345-.34-1.095-.324-1.402"/>
        <path stroke="#FFA80C" d="M28.037 7.393s-.811 1.642-.888 1.704c-.077.063-2.326.633-2.57.608-.134-.014-.502-.244-.803-.446a.282.282 0 0 1 .06-.5l4.137-1.587.064.221z"/>
        <path fill="#FFA80C" stroke="#FFA80C" d="M27.113 4.811v.003c.005.032-.028.06-.092.086-.002.001-.005.001-.006.003-.702.276-4.878.303-5.87.608.348.79 1.115 2.158.738 2.238-.431.091-.903-2.045-1.21-2.232-1.627-.06-3.221-.098-4.736-.06-1.515-.038-3.109 0-4.737.06-.306.187-.792 2.376-1.209 2.232-.23-.08.39-1.448.739-2.238-.986-.304-5.11-.448-5.855-.635-.08-.022-.122-.043-.115-.065.01-.025.075-.042.189-.051.776-.06 3.788.253 6.094.463 1.688-.049 3.219-.03 4.894-.044 1.675.014 3.206-.005 4.894.044 2.296-.209 5.313-.526 6.093-.464.117.008.184.025.19.052"/>
        <path fill="#FFA80C" stroke="#FFA80C" d="M30.438 4.041c-.179-.092-1.994-.117-1.994-.117s-.013-.013-.144.035c-.132.045-.266.394-.304.528-.04.134.063.253.08.282.015.027-.245.311-.29.34-.045.027-2.376-2.572-3.402-3.612-.572-.38-7.096-.488-8.446-.497v.173c1.356.003 7.758.058 8.372.448.083.053 1.18 1.196 1.578 1.645.306.345.818 1.138 1.039 1.485.113.008.179.025.188.05a.014.014 0 0 1-.002.013c.005.032-.028.06-.092.086l.01.017.327.037s.217.185.516.43c.298.247 1.654.863 1.654.863s.077.337.147.892c.07.554.078 5.684.078 5.684l.007-.064v.695c0 1.263-1.052 2.286-2.352 2.286H4.466c-1.3 0-2.353-1.023-2.353-2.286v-.701l.01.078S2.13 7.703 2.2 7.15c.07-.555.147-.892.147-.892s1.356-.616 1.655-.863c.298-.245.516-.43.516-.43l.326-.037.031-.051c-.08-.022-.122-.043-.115-.065.01-.025.075-.042.189-.051.22-.346.732-1.139 1.038-1.484.398-.449 1.496-1.592 1.578-1.645.615-.39 7.016-.445 8.372-.448V1.01c-1.35.009-7.874.117-8.446.497-1.026 1.04-2.11 2.066-2.854 3.324-.054-.007-.224.006-.224.006s-.279.309-.325.28c-.044-.027-.304-.311-.288-.338.016-.029.12-.148.08-.282-.039-.134-.172-.483-.305-.528-.13-.048-.144-.035-.144-.035s-1.815.025-1.994.117c-.138.073-.316.4-.391.546 0 0-.072.137-.036.143.515.071 1.839.071 2.427 0 .016-.001 0-.066 0-.066.041-.013.09-.018.122.005.062.042.385.557.363.585-.022.027-1.556.763-1.697.925-.307.354-.323 2.421-.259 4.198v3.067c0 1.342 1.12 2.429 2.5 2.429h22.942c1.38 0 2.5-1.087 2.5-2.429v-3.04c.066-1.785.052-3.878-.258-4.234-.141-.163-1.675-.899-1.697-.926-.022-.028.302-.543.363-.585.033-.023.081-.018.122-.005 0 0-.016.065 0 .066.589.071 1.912.071 2.427 0 .038-.004-.288-.616-.427-.689z"/>
        <path d="M29.615 4.659a9.258 9.258 0 0 1-1.118-.072c-.042-.147-.126-.411-.098-.451.038-.056 1.84-.047 1.98.024.237.124.298.367.368.47-.348.044-.69.031-1.132.029z"/>
        <path stroke="#FFA80C" d="M6.158 15.813v.714a.435.435 0 0 1-.442.429H2.481a.435.435 0 0 1-.441-.429V7.589m23.689 8.224v.714c0 .237.197.429.441.429h3.235a.435.435 0 0 0 .441-.429V7.589"/>
    </g>
</svg>
