<svg xmlns="http://www.w3.org/2000/svg" width="37" height="37" viewBox="0 0 37 37">
    <path fill="#FFA80C" fill-rule="evenodd" stroke="#FFA80C" stroke-width="1.094" d="M35.697 34.215l-8.507-8.506a14.862 14.862 0 0 0 3.663-9.786C30.853 7.69 24.155 1 15.927 1 7.69 1 1 7.697 1 15.923c0 8.227 6.699 14.924 14.927 14.924 3.74 0 7.164-1.381 9.788-3.663l8.507 8.506c.202.201.474.31.738.31a1.05 1.05 0 0 0 .738-1.785zM3.088 15.923c0-7.077 5.76-12.827 12.831-12.827 7.079 0 12.83 5.758 12.83 12.827 0 7.07-5.751 12.836-12.83 12.836-7.072 0-12.831-5.758-12.831-12.836z"/>
</svg>
